<?xml version="1.0" standalone="no"?>
<!DOCTYPE svg PUBLIC "-//W3C//DTD SVG 20010904//EN"
 "http://www.w3.org/TR/2001/REC-SVG-20010904/DTD/svg10.dtd">
<svg version="1.0" xmlns="http://www.w3.org/2000/svg"
 width="285.000000pt" height="285.000000pt" viewBox="0 0 285.000000 285.000000"
 preserveAspectRatio="xMidYMid meet">
<metadata>
Created by potrace 1.14, written by Peter Selinger 2001-2017
</metadata>
<g transform="translate(0.000000,285.000000) scale(0.100000,-0.100000)"
fill="#000000" stroke="none">
<path d="M1405 2410 c-3 -5 -15 -10 -26 -10 -10 0 -19 -4 -19 -10 0 -5 -7 -10
-15 -10 -8 0 -15 -5 -15 -11 0 -5 -5 -7 -12 -3 -8 5 -9 2 -5 -9 3 -9 3 -16 -1
-16 -20 3 -33 -2 -27 -11 3 -6 -1 -13 -9 -16 -9 -3 -14 -10 -11 -14 3 -5 -2
-16 -11 -24 -8 -9 -12 -16 -8 -16 3 0 1 -6 -5 -14 -9 -10 -9 -16 -1 -21 8 -5
8 -11 -1 -21 -9 -11 -8 -18 2 -31 8 -9 9 -14 3 -10 -6 3 -11 0 -11 -8 0 -8 4
-12 9 -9 4 3 8 -6 8 -20 0 -14 5 -26 10 -26 6 0 10 -8 10 -17 0 -10 14 -29 30
-42 16 -13 28 -26 25 -30 -2 -4 12 -13 31 -20 19 -7 32 -16 30 -20 -3 -4 1 -8
9 -9 8 -1 22 -3 30 -4 8 -1 15 -6 15 -11 0 -5 7 -4 15 3 10 9 15 9 15 1 0 -6
5 -11 11 -11 5 0 7 6 3 13 -6 9 -5 9 8 0 8 -7 17 -11 19 -9 3 3 17 7 33 10 16
3 33 11 38 18 6 10 8 10 8 -1 0 -9 7 -6 20 9 11 13 20 20 20 16 0 -4 6 -1 14
6 8 7 11 17 8 22 -3 5 2 7 11 3 9 -3 16 -3 15 1 -3 16 15 41 26 35 6 -4 5 1
-3 10 -11 14 -11 18 2 23 9 3 14 15 12 29 -1 14 2 22 6 19 10 -6 7 25 -4 43
-4 6 -1 14 5 16 10 4 10 6 1 6 -7 1 -13 12 -13 26 0 14 -5 25 -12 25 -6 0 -8
3 -5 7 4 3 -1 12 -11 20 -9 8 -11 12 -5 8 8 -4 11 -1 7 9 -3 9 -11 14 -17 13
-7 -1 -11 4 -10 11 2 6 -2 12 -7 12 -10 0 -22 8 -55 38 -8 7 -15 11 -15 7 0
-4 -7 0 -15 9 -9 8 -23 12 -32 9 -11 -4 -14 -3 -9 5 10 16 -6 15 -23 0 -11
-10 -13 -10 -7 0 4 6 2 12 -3 12 -6 0 -11 -6 -11 -12 0 -10 -2 -10 -8 -1 -8
13 -29 12 -51 -1 -10 -6 -12 -5 -7 2 4 7 5 12 2 12 -3 0 -8 -4 -11 -10z"/>
<path d="M1907 2154 c3 -8 -2 -17 -11 -20 -9 -3 -13 -10 -10 -15 3 -5 0 -9 -5
-9 -6 0 -11 5 -11 11 0 5 -4 7 -10 4 -5 -3 -10 0 -10 7 0 9 -3 9 -10 -2 -8
-12 -10 -12 -10 -1 0 10 -3 11 -13 2 -8 -6 -18 -7 -22 -3 -5 4 -5 1 -1 -5 4
-7 3 -13 -3 -13 -5 0 -25 -26 -45 -57 -19 -32 -39 -62 -44 -68 -7 -9 -19 -35
-23 -53 -1 -4 -9 -12 -18 -19 -9 -7 -11 -13 -6 -13 6 0 11 -9 12 -20 1 -13 -2
-18 -10 -13 -7 4 0 -7 15 -25 l26 -32 -19 -40 c-11 -22 -24 -40 -30 -40 -6 0
-8 -4 -4 -9 3 -5 -5 -17 -17 -25 -12 -9 -17 -16 -10 -16 8 0 5 -8 -7 -22 -12
-12 -23 -30 -27 -40 -3 -10 -10 -18 -15 -18 -5 0 -9 -7 -9 -15 0 -8 -5 -15
-11 -15 -5 0 -7 -5 -4 -10 3 -6 -1 -13 -10 -16 -9 -4 -14 -12 -12 -19 3 -6 -4
-17 -14 -24 -11 -6 -17 -16 -14 -21 3 -6 -2 -10 -12 -11 -11 0 -13 -3 -5 -6 9
-4 7 -10 -7 -22 -12 -10 -18 -21 -14 -24 3 -4 -2 -9 -11 -13 -9 -3 -14 -9 -11
-14 2 -4 -4 -16 -15 -27 -10 -12 -16 -23 -13 -27 3 -3 -2 -8 -11 -12 -9 -3
-14 -9 -11 -13 2 -4 -9 -23 -25 -42 -16 -19 -29 -40 -30 -46 0 -7 -5 -13 -11
-13 -5 0 -8 -4 -5 -9 3 -5 -1 -12 -10 -15 -8 -3 -12 -10 -9 -16 3 -5 2 -10 -3
-10 -5 0 -15 -13 -22 -30 -7 -17 -16 -30 -20 -30 -4 0 -11 -11 -14 -25 -4 -14
-11 -23 -16 -20 -6 3 -10 -1 -10 -10 0 -16 -55 -103 -75 -117 -5 -4 -6 -8 -2
-8 5 0 -1 -12 -12 -26 -12 -15 -21 -34 -21 -42 0 -8 -3 -12 -7 -9 -3 4 -14
-11 -24 -33 -10 -22 -23 -40 -29 -40 -6 0 -8 -4 -5 -10 3 -5 1 -10 -4 -10 -6
0 -10 -4 -8 -9 1 -5 -7 -17 -18 -26 -11 -9 -13 -13 -5 -9 11 6 10 2 -2 -13
-10 -11 -18 -25 -18 -32 0 -7 -5 -9 -12 -5 -8 5 -9 2 -5 -9 4 -11 1 -17 -7
-17 -17 0 -13 -43 5 -48 11 -3 11 -1 -1 7 -11 8 -11 11 -2 11 7 0 15 -7 19
-16 5 -15 50 -39 66 -36 4 1 7 -2 7 -8 0 -6 6 -9 13 -8 6 2 11 -3 9 -10 -1 -8
3 -12 10 -9 7 2 28 -7 47 -21 19 -14 31 -20 27 -14 -4 6 7 4 23 -6 17 -9 31
-21 31 -25 0 -5 4 -6 9 -3 5 3 14 -1 21 -9 13 -16 35 -21 26 -7 -3 5 4 14 14
22 10 8 17 17 14 22 -3 4 0 8 5 8 6 0 11 7 11 15 0 8 5 15 11 15 5 0 7 5 4 10
-3 6 -3 10 2 10 9 0 47 62 45 73 -1 4 5 7 14 7 8 0 13 4 10 9 -5 7 2 19 43 67
5 7 7 15 4 18 -4 3 -1 6 5 6 7 0 12 6 12 14 0 8 7 17 16 20 8 3 13 10 10 15
-3 5 1 14 9 21 8 7 12 16 9 21 -3 5 0 8 8 7 7 -2 12 3 11 9 -2 7 1 13 6 13 5
0 12 11 15 25 4 14 11 25 16 25 6 0 10 7 10 15 0 7 7 18 16 23 9 5 16 12 15
15 -1 16 12 36 20 31 5 -3 6 2 3 10 -3 9 -1 16 5 16 6 0 10 4 8 9 -1 5 7 17
18 26 11 9 14 13 7 10 -11 -6 -11 -3 0 14 7 12 16 21 19 21 4 0 14 16 23 35
11 23 22 33 29 28 8 -5 8 -2 -1 9 -10 13 -10 17 4 22 9 4 14 9 11 13 -4 3 1
12 11 19 9 7 18 17 18 23 1 6 2 16 3 22 0 5 5 8 10 4 5 -3 12 3 15 13 7 22 96
139 96 126 0 -4 8 1 19 12 28 29 61 55 61 47 0 -3 8 1 18 9 9 8 40 23 67 33
28 9 58 21 68 26 12 6 17 5 17 -3 0 -9 3 -8 10 2 9 13 10 13 10 0 0 -9 3 -11
8 -5 10 14 52 15 52 1 0 -6 5 -4 10 4 6 9 10 10 10 3 0 -6 8 -12 18 -12 24 0
69 -13 103 -31 12 -6 19 -3 27 15 6 13 8 26 4 30 -12 12 -8 189 5 228 6 20 10
37 7 37 -2 0 0 9 6 20 13 24 20 22 -113 24 -53 0 -97 -3 -97 -7 0 -5 -4 -6 -9
-2 -5 3 -12 1 -16 -4 -3 -6 -12 -8 -20 -4 -8 3 -15 -1 -15 -8 0 -7 -3 -9 -7
-6 -3 4 -12 2 -19 -4 -9 -8 -9 1 3 30 9 22 19 38 23 36 5 -3 13 9 19 25 5 17
15 30 20 30 6 0 8 6 5 14 -3 7 1 16 9 19 21 8 14 52 -9 52 -10 -1 -27 8 -36
18 -10 11 -22 16 -29 11 -8 -4 -9 -3 -5 4 4 7 1 12 -8 12 -9 0 -16 5 -16 10 0
6 -7 10 -15 10 -8 0 -15 5 -15 11 0 5 -4 7 -10 4 -5 -3 -10 -2 -10 3 0 6 -13
15 -30 21 -16 5 -30 15 -30 20 0 6 -3 10 -7 10 -21 -3 -33 2 -33 15 0 7 -11
16 -24 18 -17 4 -23 1 -19 -8z"/>
<path d="M1047 1854 c3 -8 -2 -17 -11 -20 -9 -3 -16 -12 -16 -20 0 -8 -4 -14
-10 -14 -5 0 -10 -5 -10 -11 0 -7 -8 -18 -17 -26 -12 -10 -13 -12 -3 -8 10 4
9 2 -2 -8 -10 -8 -18 -19 -18 -26 0 -6 -7 -14 -15 -17 -8 -4 -12 -10 -9 -15 3
-5 0 -9 -6 -9 -6 0 -8 -5 -5 -10 3 -6 -1 -13 -9 -16 -9 -3 -13 -10 -10 -15 3
-5 0 -9 -6 -9 -6 0 -8 -4 -5 -10 3 -5 1 -10 -6 -10 -7 0 -10 -3 -7 -6 3 -3 -5
-17 -18 -31 -13 -14 -22 -28 -20 -32 6 -10 -21 -31 -30 -23 -4 4 -4 -1 -1 -10
4 -10 2 -18 -4 -18 -6 0 -8 -4 -5 -9 3 -5 -1 -11 -9 -15 -8 -3 -15 -12 -15
-21 0 -8 -5 -15 -11 -15 -5 0 -7 -4 -4 -10 3 -5 2 -10 -4 -10 -5 0 -13 -9 -16
-20 -4 -11 -10 -18 -15 -15 -4 3 -7 -3 -6 -12 2 -10 -7 -28 -20 -39 -12 -12
-20 -25 -17 -28 4 -3 1 -6 -6 -6 -7 0 -10 -4 -7 -9 4 -5 3 -11 -1 -13 -11 -5
-143 -206 -143 -218 0 -5 -4 -10 -10 -10 -5 0 -10 -7 -10 -15 0 -8 -4 -15 -10
-15 -5 0 -10 -6 -10 -13 0 -7 -9 -23 -20 -35 -12 -12 -17 -22 -13 -22 4 0 1
-6 -8 -13 -22 -17 -20 -47 3 -47 10 0 18 -3 18 -8 0 -4 15 -14 33 -22 17 -7
41 -22 51 -32 10 -9 23 -15 28 -12 4 3 8 0 8 -6 0 -6 5 -8 10 -5 6 3 10 1 10
-4 0 -6 7 -11 15 -11 8 0 15 -5 15 -12 0 -6 3 -8 7 -5 3 4 12 -1 20 -11 10
-11 12 -12 8 -2 -4 8 1 6 9 -4 9 -11 16 -17 16 -14 0 4 12 0 28 -8 26 -13 28
-13 41 16 8 17 19 30 23 30 5 0 7 4 3 10 -5 8 5 23 40 64 6 6 16 23 24 39 8
15 18 27 23 27 5 0 7 4 4 9 -3 5 9 23 27 41 17 18 26 30 20 26 -7 -4 -13 -2
-13 3 0 6 4 11 10 11 5 0 21 20 36 45 14 25 30 45 36 45 5 0 6 5 3 10 -3 6 -1
10 5 10 6 0 9 4 6 9 -3 4 3 16 14 26 11 10 20 24 20 32 0 7 4 13 9 13 5 0 12
11 15 25 4 16 11 23 18 19 7 -5 8 -3 3 5 -4 7 1 22 13 34 10 12 27 37 38 55
10 17 22 32 27 32 4 0 6 4 2 9 -3 6 3 14 12 20 10 6 14 11 10 11 -4 0 4 16 19
35 14 19 23 35 18 35 -5 0 2 7 14 16 13 9 21 22 18 30 -3 8 -1 14 5 14 5 0 14
11 21 25 6 13 16 22 21 18 6 -4 8 0 4 10 -3 9 -1 20 6 24 7 5 20 20 30 36 17
26 13 33 -17 28 -5 -1 -6 5 -3 13 4 9 3 15 -1 15 -22 -4 -42 2 -37 11 3 6 -2
10 -12 10 -23 1 -55 25 -45 35 4 5 -1 5 -10 2 -12 -4 -18 -1 -18 8 0 8 -9 15
-20 15 -11 0 -20 5 -20 10 0 6 -7 10 -15 10 -8 0 -15 5 -15 10 0 6 -5 10 -10
10 -6 0 -20 9 -31 19 -27 25 -60 34 -52 15z"/>
</g>
</svg>
